<svg width="52" height="52" viewBox="0 0 52 52" fill="none" xmlns="http://www.w3.org/2000/svg">
<circle cx="26" cy="26" r="26" fill="#A1F0C4"/>
<path fill-rule="evenodd" clip-rule="evenodd" d="M22.448 15.2915C22.9244 15.2915 23.3111 15.6708 23.3111 16.139C23.3111 16.6062 22.9255 16.9855 22.448 16.9855L20.6003 16.9866C19.0667 16.9888 17.8191 18.2134 17.8191 19.7183V21.8271C17.8191 22.2943 17.4311 22.6747 16.9547 22.6747C16.4784 22.6747 16.0916 22.2943 16.0916 21.8271V19.7183C16.0916 17.2802 18.114 15.2948 20.5991 15.2926L22.4468 15.2915H22.448ZM30.5839 15.2918H32.3907C34.8827 15.2918 36.9085 17.2783 36.9085 19.7219V21.8274C36.9085 22.2945 36.5228 22.6749 36.0453 22.6749C35.5689 22.6749 35.1821 22.2945 35.1821 21.8274V19.7219C35.1821 18.2126 33.9299 16.9846 32.3907 16.9846H30.5839C30.1075 16.9846 29.7207 16.6065 29.7207 16.1393C29.7207 15.6711 30.1075 15.2918 30.5839 15.2918ZM29.6335 19.5366H23.3679C21.9342 19.5511 20.7818 20.7001 20.7942 22.1071V23.5196C20.7976 23.6842 20.9326 23.8188 21.1005 23.8244H31.8986C32.0676 23.8199 32.2026 23.6854 32.2083 23.5196V22.1071C32.2094 21.4275 31.9417 20.7746 31.4585 20.2885C30.9787 19.8069 30.3197 19.5366 29.6335 19.5366ZM14.8873 25.5466H38.1135C38.5899 25.5466 38.9767 25.9259 38.9767 26.3942C38.9767 26.8613 38.5899 27.2395 38.1135 27.2395H36.9089V31.277C36.9089 33.7217 34.882 35.7082 32.3912 35.7082H30.5843C30.1068 35.7082 29.72 35.3289 29.72 34.8607C29.72 34.3935 30.1068 34.0142 30.5843 34.0142H32.3912C33.9304 34.0142 35.1826 32.7874 35.1826 31.277V27.2395H32.2074V28.364C32.2188 29.771 31.0675 30.9211 29.6327 30.9344H23.367C21.9333 30.9211 20.782 29.771 20.7934 28.364V27.2395H17.8182V31.2814C17.8182 32.7863 19.067 34.0109 20.6017 34.0131L22.4483 34.0142C22.9247 34.0142 23.3114 34.3935 23.3114 34.8607C23.3103 35.3289 22.9247 35.7082 22.4471 35.7082L20.5994 35.7071C18.1143 35.7049 16.0907 33.7195 16.0907 31.2814V27.2395H14.8873C14.4109 27.2395 14.023 26.8613 14.023 26.3942C14.023 25.9259 14.4109 25.5466 14.8873 25.5466Z" fill="#704FF7"/>
</svg>
