<svg width="52" height="52" viewBox="0 0 52 52" fill="none" xmlns="http://www.w3.org/2000/svg">
<path d="M26 0.166504C11.7917 0.166504 0.166687 11.7915 0.166687 25.9998C0.166687 40.2082 11.7917 51.8332 26 51.8332C40.2084 51.8332 51.8334 40.2082 51.8334 25.9998C51.8334 11.7915 40.2084 0.166504 26 0.166504ZM36.85 21.6082L24.45 34.0082C23.4167 35.0415 21.8667 35.0415 20.8334 34.0082L15.15 28.3248C14.1167 27.2915 14.1167 25.7415 15.15 24.7082C16.1834 23.6748 17.7334 23.6748 18.7667 24.7082L22.6417 28.5832L33.2334 17.9915C34.2667 16.9582 35.8167 16.9582 36.85 17.9915C37.8834 19.0248 37.8834 20.5748 36.85 21.6082Z" fill="#A1F0C4"/>
</svg>
