<svg width="80" height="23" viewBox="0 0 80 23" fill="none" xmlns="http://www.w3.org/2000/svg">
<g clip-path="url(#clip0_1_1292)">
<path d="M4.18165 22.5088C6.95102 22.5088 8.96085 20.3657 8.96085 17.3826L8.96847 0.760726C8.96847 0.693569 8.99518 0.629164 9.04273 0.581677C9.09027 0.53419 9.15476 0.507513 9.22201 0.507513H11.4767C11.544 0.507225 11.6085 0.480306 11.656 0.432647C11.7035 0.384988 11.7302 0.32047 11.7302 0.253213C11.7302 0.186057 11.7035 0.121651 11.656 0.0741644C11.6084 0.0266777 11.5439 0 11.4767 0L3.34921 0C3.28196 0 3.21747 0.0266777 3.16992 0.0741644C3.12238 0.121651 3.09566 0.186057 3.09566 0.253213C3.09552 0.286557 3.10197 0.3196 3.11465 0.350447C3.12733 0.381294 3.14598 0.409336 3.16954 0.432965C3.1931 0.456593 3.22109 0.475342 3.25193 0.488135C3.28276 0.500928 3.31582 0.507513 3.34921 0.507513H5.58429C5.65153 0.507513 5.71602 0.53419 5.76357 0.581677C5.81112 0.629164 5.83783 0.693569 5.83783 0.760726V19.6072C5.83783 21.1286 5.29375 22.0469 4.09677 22.0469C3.30894 22.0469 2.76595 21.5861 2.76595 20.8808C2.76595 20.2842 2.84212 19.8506 2.84212 19.1725C2.84212 18.2509 2.38618 17.5184 1.48954 17.5184C0.566778 17.5184 -0.00341797 18.1966 -0.00341797 19.2572C-0.000153487 21.0982 1.84972 22.5088 4.18165 22.5088Z" fill="black"/>
<path d="M20.5456 21.7796H17.9666C17.9173 21.7796 17.8699 21.76 17.835 21.7252C17.8001 21.6903 17.7805 21.643 17.7805 21.5938V0.507527H17.9982L25.8297 22.6044C25.8425 22.6406 25.8662 22.672 25.8976 22.6942C25.9289 22.7163 25.9664 22.7283 26.0049 22.7283H26.3139C26.3523 22.7283 26.3898 22.7163 26.4212 22.6942C26.4526 22.672 26.4763 22.6406 26.4891 22.6044L34.2771 0.631417C34.2896 0.595045 34.3132 0.563522 34.3447 0.541293C34.3761 0.519065 34.4137 0.507254 34.4522 0.507527C34.5016 0.507527 34.5489 0.527106 34.5838 0.561957C34.6187 0.596808 34.6383 0.644075 34.6383 0.693362V21.5938C34.638 21.643 34.6183 21.6901 34.5835 21.7248C34.5487 21.7596 34.5015 21.7793 34.4522 21.7796H31.6143C31.565 21.7796 31.5176 21.7992 31.4827 21.834C31.4479 21.8689 31.4282 21.9161 31.4282 21.9654V22.1013C31.4285 22.1504 31.4483 22.1974 31.4831 22.232C31.518 22.2666 31.5652 22.286 31.6143 22.286H41.4001C41.4245 22.2862 41.4487 22.2815 41.4713 22.2723C41.4938 22.2631 41.5144 22.2495 41.5317 22.2323C41.549 22.2151 41.5627 22.1947 41.572 22.1722C41.5814 22.1497 41.5862 22.1256 41.5862 22.1013V21.9654C41.5864 21.941 41.5817 21.9168 41.5724 21.8941C41.5631 21.8715 41.5494 21.851 41.532 21.8337C41.5147 21.8164 41.4942 21.8027 41.4715 21.7934C41.4489 21.7842 41.4246 21.7794 41.4001 21.7796H38.0562C38.0317 21.7797 38.0073 21.775 37.9845 21.7658C37.9618 21.7565 37.941 21.7429 37.9236 21.7256C37.9061 21.7084 37.8922 21.6878 37.8826 21.6652C37.8731 21.6426 37.8681 21.6183 37.868 21.5938V0.693362C37.868 0.644075 37.8876 0.596808 37.9225 0.561957C37.9574 0.527106 38.0047 0.507527 38.0541 0.507527H41.3664C41.4153 0.507832 41.4624 0.489012 41.4976 0.455094C41.5328 0.421177 41.5532 0.374855 41.5547 0.32604V0.185849C41.5544 0.136651 41.5347 0.0895483 41.4999 0.0547593C41.465 0.0199702 41.4179 0.000299665 41.3686 1.44503e-05H34.0366C33.998 0.000154391 33.9604 0.0121106 33.9289 0.034267C33.8974 0.0564235 33.8734 0.0877121 33.8603 0.123904L27.8895 16.9751C27.8766 17.0111 27.8529 17.0423 27.8215 17.0644C27.7901 17.0864 27.7527 17.0983 27.7144 17.0983C27.676 17.0983 27.6386 17.0864 27.6072 17.0644C27.5759 17.0423 27.5521 17.0111 27.5392 16.9751L21.5053 0.122817C21.4922 0.0864755 21.4681 0.0551195 21.4363 0.0331103C21.4045 0.0111011 21.3666 -0.000467171 21.3279 1.44503e-05H13.6161C13.5669 0.000299665 13.5197 0.0199702 13.4849 0.0547593C13.45 0.0895483 13.4304 0.136651 13.4301 0.185849V0.32604C13.4304 0.375238 13.45 0.42234 13.4849 0.457129C13.5197 0.491919 13.5669 0.511589 13.6161 0.511874H16.54C16.5645 0.51173 16.5888 0.516438 16.6114 0.525726C16.6341 0.535014 16.6546 0.548697 16.6719 0.565982C16.6892 0.583268 16.7029 0.603811 16.7122 0.626423C16.7215 0.649034 16.7263 0.673264 16.7261 0.697709V21.5938C16.7261 21.643 16.7065 21.6903 16.6716 21.7252C16.6367 21.76 16.5894 21.7796 16.54 21.7796H13.4779C13.4307 21.7795 13.3852 21.7975 13.3508 21.8298C13.3164 21.8621 13.2957 21.9064 13.293 21.9535L13.2843 22.0893C13.2828 22.1145 13.2865 22.1398 13.2951 22.1635C13.3037 22.1873 13.3171 22.209 13.3344 22.2274C13.3517 22.2458 13.3726 22.2605 13.3958 22.2706C13.419 22.2807 13.444 22.2859 13.4692 22.286H20.5423C20.5914 22.286 20.6386 22.2666 20.6735 22.232C20.7083 22.1974 20.7281 22.1504 20.7284 22.1013V21.9654C20.7284 21.9167 20.7092 21.8699 20.675 21.8352C20.6408 21.8004 20.5943 21.7804 20.5456 21.7796Z" fill="black"/>
<path d="M63.2853 19.4018C63.3157 17.9803 63.3723 16.8175 63.4322 15.4677C63.4338 15.4354 63.4288 15.4031 63.4176 15.3728C63.4063 15.3425 63.3891 15.3147 63.3668 15.2913C63.3445 15.2678 63.3177 15.2491 63.288 15.2363C63.2582 15.2235 63.2262 15.2168 63.1938 15.2167C63.1389 15.2169 63.0857 15.236 63.0433 15.2709C63.0008 15.3057 62.9718 15.3542 62.961 15.408C62.1993 19.1138 60.1187 21.7796 55.0631 21.7796H50.3818C50.3185 21.7793 50.2579 21.754 50.2133 21.7092C50.1686 21.6644 50.1435 21.6037 50.1435 21.5405V10.9229C50.1438 10.8594 50.1693 10.7986 50.2144 10.7538C50.2594 10.709 50.3204 10.6838 50.384 10.6838C54.3536 10.6936 56.555 10.9849 57.1611 15.2797C57.169 15.3396 57.1993 15.3944 57.2459 15.4329C57.2925 15.4714 57.352 15.4908 57.4125 15.4873H57.4342C57.4954 15.4823 57.5523 15.4538 57.5929 15.4078C57.6334 15.3618 57.6546 15.3019 57.6518 15.2406C57.5953 13.8876 57.567 12.5096 57.567 11.1598C57.567 9.43481 57.5956 7.70977 57.6529 5.98474C57.6543 5.95286 57.6491 5.92105 57.6378 5.89123C57.6264 5.86141 57.6091 5.83419 57.587 5.81123C57.5648 5.78827 57.5382 5.77004 57.5087 5.75765C57.4793 5.74526 57.4477 5.73896 57.4157 5.73913H57.3461C57.2854 5.73954 57.2271 5.76284 57.1829 5.80436C57.1387 5.84588 57.1119 5.90255 57.1078 5.963C56.8499 9.6297 55.3591 10.16 50.3818 10.1763C50.3183 10.1761 50.2575 10.1508 50.2125 10.1061C50.1675 10.0613 50.1419 10.0007 50.1414 9.93725V0.745511C50.1414 0.714073 50.1476 0.682946 50.1597 0.653928C50.1718 0.62491 50.1896 0.598577 50.2119 0.576448C50.2343 0.554319 50.2608 0.536834 50.29 0.525002C50.3191 0.51317 50.3504 0.507226 50.3818 0.507513H55.1904C59.444 0.507513 61.4169 1.8616 62.4158 5.93475C62.4283 5.98687 62.4579 6.03331 62.4999 6.06662C62.5419 6.09992 62.5939 6.11816 62.6476 6.11841H62.7053C62.7385 6.11826 62.7714 6.11118 62.8018 6.09763C62.8322 6.08408 62.8594 6.06436 62.8817 6.03971C62.904 6.01507 62.921 5.98605 62.9314 5.9545C62.9419 5.92296 62.9457 5.88958 62.9425 5.8565C62.855 5.03799 62.8209 4.21468 62.8402 3.39175C62.8979 1.88443 63.1666 1.2715 63.2896 0.268428C63.2936 0.234871 63.2904 0.200854 63.2804 0.168598C63.2703 0.136342 63.2535 0.106574 63.2311 0.0812396C63.2087 0.0559049 63.1812 0.0355737 63.1504 0.0215747C63.1196 0.00757566 63.0862 0.00022395 63.0524 0L43.4938 0C43.4303 0 43.3694 0.0251893 43.3245 0.0700264C43.2796 0.114864 43.2544 0.175676 43.2544 0.239085V0.268428C43.2547 0.331749 43.28 0.392395 43.3248 0.43717C43.3697 0.481946 43.4304 0.507227 43.4938 0.507513H46.668C46.6993 0.50737 46.7304 0.51342 46.7595 0.525316C46.7885 0.537213 46.8149 0.554721 46.8372 0.576836C46.8594 0.59895 46.8771 0.625235 46.8891 0.654181C46.9012 0.683128 46.9074 0.714165 46.9074 0.745511V21.5405C46.9074 21.6039 46.8821 21.6647 46.8372 21.7096C46.7923 21.7544 46.7314 21.7796 46.668 21.7796H43.4938C43.4305 21.7796 43.3698 21.8046 43.3249 21.8492C43.28 21.8938 43.2547 21.9544 43.2544 22.0176V22.048C43.2547 22.1112 43.28 22.1718 43.3249 22.2164C43.3698 22.261 43.4305 22.286 43.4938 22.286H63.1754C63.2091 22.2858 63.2424 22.2784 63.2731 22.2645C63.3038 22.2506 63.3312 22.2303 63.3536 22.2051C63.376 22.1799 63.3928 22.1503 63.403 22.1182C63.4131 22.086 63.4164 22.0521 63.4126 22.0187C63.3077 21.1505 63.2651 20.276 63.2853 19.4018Z" fill="black"/>
<path d="M79.7959 15.9807C79.7959 11.6565 76.6576 10.4698 73.4258 9.46669C69.9752 8.36798 66.43 7.4888 66.43 4.07314C66.43 1.7551 68.751 0.532508 70.8218 0.532508C71.7454 0.525101 72.6578 0.733863 73.4861 1.14207C74.3143 1.55027 75.0353 2.14656 75.5912 2.88315C76.2615 3.76559 76.6359 4.67846 77.1462 6.74112C77.1592 6.79333 77.1893 6.83971 77.2317 6.87297C77.274 6.90622 77.3263 6.92445 77.3802 6.92478H77.477C77.5092 6.92479 77.5411 6.91834 77.5708 6.9058C77.6005 6.89325 77.6274 6.87488 77.6498 6.85177C77.6722 6.82865 77.6898 6.80127 77.7014 6.77125C77.713 6.74122 77.7185 6.70917 77.7175 6.677L77.5129 0.577065C77.5107 0.514785 77.4844 0.455791 77.4395 0.412439C77.3947 0.369086 77.3348 0.34474 77.2724 0.3445H77.2082C77.1536 0.344279 77.1005 0.362841 77.0579 0.397072C77.0153 0.431304 76.9858 0.479122 76.9743 0.532508C76.8372 1.23129 76.4171 1.63013 75.811 1.63013C75.5281 1.63013 75.3758 1.53667 74.7435 1.12913C73.7773 0.4347 72.145 0 70.6967 0C67.245 0 65.1471 2.82555 65.1471 6.1108C65.1471 9.96442 67.9088 11.1207 70.8893 12.1542C74.4345 13.3768 78.2942 14.3516 78.2942 18.2998C78.2942 21.0884 75.5325 22.5294 73.0536 22.5294C70.8262 22.5294 68.3745 21.3079 67.2178 19.5843C66.3919 18.3313 66.1025 17.4945 65.5943 14.9222C65.5831 14.8675 65.5534 14.8184 65.5102 14.7829C65.467 14.7475 65.4129 14.728 65.3571 14.7277C65.3254 14.7277 65.294 14.7339 65.2648 14.746C65.2355 14.7582 65.209 14.776 65.1866 14.7984C65.1643 14.8208 65.1466 14.8474 65.1346 14.8767C65.1226 14.9059 65.1164 14.9373 65.1166 14.9689L65.146 22.2273C65.1462 22.2909 65.1717 22.3519 65.2167 22.3968C65.2618 22.4418 65.3228 22.4672 65.3864 22.4675H65.3962C65.4504 22.467 65.5029 22.4485 65.5453 22.4148C65.5877 22.3811 65.6176 22.3343 65.6302 22.2817C65.8739 21.2938 66.1873 20.9319 66.7793 20.9319C67.1123 20.942 67.4368 21.039 67.7206 21.2134L69.2538 22.061C70.3517 22.687 71.6379 23.0011 73.0188 23.0011C77.1908 23 79.7959 20.0538 79.7959 15.9807Z" fill="black"/>
</g>
<defs>
<clipPath id="clip0_1_1292">
<rect width="79.7959" height="23" fill="white"/>
</clipPath>
</defs>
</svg>
