<svg width="62" height="62" viewBox="0 0 62 62" fill="none" xmlns="http://www.w3.org/2000/svg">
<g id="Styleguide / Icon / check-circle">
<path id="Vector" d="M31.0001 5.16666C16.7917 5.16666 5.16675 16.7917 5.16675 31C5.16675 45.2083 16.7917 56.8333 31.0001 56.8333C45.2084 56.8333 56.8334 45.2083 56.8334 31C56.8334 16.7917 45.2084 5.16666 31.0001 5.16666ZM41.8501 26.6083L29.4501 39.0083C28.4167 40.0417 26.8667 40.0417 25.8334 39.0083L20.1501 33.325C19.1167 32.2917 19.1167 30.7417 20.1501 29.7083C21.1834 28.675 22.7334 28.675 23.7667 29.7083L27.6417 33.5833L38.2334 22.9917C39.2668 21.9583 40.8167 21.9583 41.8501 22.9917C42.8834 24.025 42.8834 25.575 41.8501 26.6083Z" fill="#A1F0C4"/>
</g>
</svg>
