<svg xmlns="http://www.w3.org/2000/svg" width="8" height="10" viewBox="0 0 8 10" fill="none">
<path d="M2.91923 10.0001C2.02382 10.0001 1.31114 9.74885 0.781204 9.24632C0.260401 8.74379 0 8.03568 0 7.12199H1.45276C1.45276 7.57884 1.56241 7.95802 1.78169 8.25954C2.01011 8.56105 2.38016 8.71181 2.89182 8.71181C3.39435 8.71181 3.75069 8.57019 3.96084 8.28695C4.17099 7.99457 4.27606 7.62452 4.27606 7.17682V0.856934H5.72883V7.17682C5.72883 8.08137 5.47756 8.78034 4.97503 9.27373C4.4725 9.75799 3.78724 10.0001 2.91923 10.0001Z" fill="#0F0056"/>
<rect x="1.90129" y="4.06396" width="6.09887" height="1.21977" fill="#0F0056"/>
<rect x="1.90129" y="2.03076" width="6.09887" height="1.21977" fill="#0F0056"/>
</svg>