<svg width="9" height="11" viewBox="0 0 9 11" fill="none" xmlns="http://www.w3.org/2000/svg">
<g id="Group 206">
<path id="label" d="M3.28407 10.9778C2.27675 10.9778 1.47501 10.6951 0.878837 10.1298C0.292946 9.56442 0 8.76781 0 7.73993H1.63433C1.63433 8.25387 1.75767 8.68044 2.00436 9.01964C2.26133 9.35884 2.67763 9.52844 3.25324 9.52844C3.81857 9.52844 4.21944 9.36912 4.45586 9.05048C4.69227 8.72156 4.81048 8.30527 4.81048 7.8016V0H6.4448V7.8016C6.4448 8.81921 6.16214 9.60553 5.5968 10.1606C5.03147 10.7054 4.26056 10.9778 3.28407 10.9778Z" fill="white"/>
<rect id="Rectangle 37" x="2.13904" y="4.29968" width="6.86109" height="1.37222" fill="white"/>
<rect id="Rectangle 38" x="2.13904" y="2.01257" width="6.86109" height="1.37222" fill="white"/>
</g>
</svg>
