<svg xmlns="http://www.w3.org/2000/svg" width="25" height="21" viewBox="0 0 25 21" fill="none">
    <path fill-rule="evenodd" clip-rule="evenodd" d="M8.44795 0.291687C8.92434 0.291687 9.31112 0.670966 9.31112 1.13923C9.31112 1.60637 8.92548 1.98565 8.44795 1.98565L6.60024 1.98676C5.06673 1.98899 3.81904 3.21358 3.81904 4.71846V6.8273C3.81904 7.29445 3.43112 7.67484 2.95473 7.67484C2.47835 7.67484 2.09156 7.29445 2.09156 6.8273V4.71846C2.09156 2.2804 4.11395 0.295024 6.59911 0.292799L8.44682 0.291687H8.44795ZM16.5838 0.291964H18.3907C20.8827 0.291964 22.9085 2.27845 22.9085 4.72208V6.82758C22.9085 7.29472 22.5228 7.67511 22.0453 7.67511C21.5689 7.67511 21.1821 7.29472 21.1821 6.82758V4.72208C21.1821 3.21275 19.9299 1.98482 18.3907 1.98482H16.5838C16.1075 1.98482 15.7207 1.60665 15.7207 1.1395C15.7207 0.671243 16.1075 0.291964 16.5838 0.291964ZM15.6335 4.53682H9.36785C7.93415 4.55128 6.78174 5.70024 6.79422 7.10724V8.51981C6.79762 8.68442 6.9326 8.819 7.10047 8.82456H17.8986C18.0676 8.82012 18.2026 8.68553 18.2083 8.51981V7.10724C18.2094 6.42766 17.9417 5.77476 17.4585 5.28871C16.9787 4.8071 16.3197 4.53682 15.6335 4.53682ZM0.887285 10.5468H24.1135C24.5899 10.5468 24.9767 10.9261 24.9767 11.3944C24.9767 11.8615 24.5899 12.2397 24.1135 12.2397H22.9089V16.2772C22.9089 18.7219 20.882 20.7084 18.3912 20.7084H16.5843C16.1068 20.7084 15.72 20.3291 15.72 19.8608C15.72 19.3937 16.1068 19.0144 16.5843 19.0144H18.3912C19.9304 19.0144 21.1826 17.7876 21.1826 16.2772V12.2397H18.2074V13.3642C18.2188 14.7712 17.0675 15.9212 15.6327 15.9346H9.36701C7.9333 15.9212 6.78203 14.7712 6.79337 13.3642V12.2397H3.81821V16.2816C3.81821 17.7865 5.06703 19.0111 6.60168 19.0133L8.44826 19.0144C8.92465 19.0144 9.31143 19.3937 9.31143 19.8608C9.31029 20.3291 8.92465 20.7084 8.44712 20.7084L6.59941 20.7073C4.11425 20.705 2.09073 18.7197 2.09073 16.2816V12.2397H0.887285C0.410896 12.2397 0.0229797 11.8615 0.0229797 11.3944C0.0229797 10.9261 0.410896 10.5468 0.887285 10.5468Z" fill="white"/>
    </svg>
    