<svg xmlns="http://www.w3.org/2000/svg" width="35" height="35" viewBox="0 0 35 35" fill="none">
    <path fill-rule="evenodd" clip-rule="evenodd" d="M13.448 7.29169C13.9243 7.29169 14.3111 7.67097 14.3111 8.13923C14.3111 8.60637 13.9255 8.98565 13.448 8.98565L11.6002 8.98676C10.0667 8.98899 8.81904 10.2136 8.81904 11.7185V13.8273C8.81904 14.2944 8.43112 14.6748 7.95473 14.6748C7.47835 14.6748 7.09156 14.2944 7.09156 13.8273V11.7185C7.09156 9.2804 9.11395 7.29502 11.5991 7.2928L13.4468 7.29169H13.448ZM21.5838 7.29196H23.3907C25.8827 7.29196 27.9085 9.27845 27.9085 11.7221V13.8276C27.9085 14.2947 27.5228 14.6751 27.0453 14.6751C26.5689 14.6751 26.1821 14.2947 26.1821 13.8276V11.7221C26.1821 10.2127 24.9299 8.98482 23.3907 8.98482H21.5838C21.1075 8.98482 20.7207 8.60665 20.7207 8.1395C20.7207 7.67124 21.1075 7.29196 21.5838 7.29196ZM20.6335 11.5368H14.3679C12.9341 11.5513 11.7817 12.7002 11.7942 14.1072V15.5198C11.7976 15.6844 11.9326 15.819 12.1005 15.8246H22.8986C23.0676 15.8201 23.2026 15.6855 23.2083 15.5198V14.1072C23.2094 13.4277 22.9417 12.7748 22.4585 12.2887C21.9787 11.8071 21.3197 11.5368 20.6335 11.5368ZM5.88729 17.5468H29.1135C29.5899 17.5468 29.9767 17.9261 29.9767 18.3944C29.9767 18.8615 29.5899 19.2397 29.1135 19.2397H27.9089V23.2772C27.9089 25.7219 25.882 27.7084 23.3912 27.7084H21.5843C21.1068 27.7084 20.72 27.3291 20.72 26.8608C20.72 26.3937 21.1068 26.0144 21.5843 26.0144H23.3912C24.9304 26.0144 26.1826 24.7876 26.1826 23.2772V19.2397H23.2074V20.3642C23.2188 21.7712 22.0675 22.9212 20.6327 22.9346H14.367C12.9333 22.9212 11.782 21.7712 11.7934 20.3642V19.2397H8.81821V23.2816C8.81821 24.7865 10.067 26.0111 11.6017 26.0133L13.4483 26.0144C13.9246 26.0144 14.3114 26.3937 14.3114 26.8608C14.3103 27.3291 13.9246 27.7084 13.4471 27.7084L11.5994 27.7073C9.11425 27.705 7.09073 25.7197 7.09073 23.2816V19.2397H5.88729C5.4109 19.2397 5.02298 18.8615 5.02298 18.3944C5.02298 17.9261 5.4109 17.5468 5.88729 17.5468Z" fill="white"/>
    </svg>