<svg width="40" height="40" viewBox="0 0 40 40" fill="none" xmlns="http://www.w3.org/2000/svg">
<g id="Fill/Scan" opacity="0.7">
<g id="Scan">
<path id="Scan_2" fill-rule="evenodd" clip-rule="evenodd" d="M15.3691 8.33337C15.9135 8.33337 16.3556 8.76684 16.3556 9.30199C16.3556 9.83587 15.9148 10.2693 15.3691 10.2693L13.2574 10.2706C11.5048 10.2731 10.0789 11.6727 10.0789 13.3925V15.8026C10.0789 16.3365 9.63556 16.7713 9.09112 16.7713C8.54667 16.7713 8.10463 16.3365 8.10463 15.8026V13.3925C8.10463 10.6062 10.4159 8.33719 13.2561 8.33465L15.3678 8.33337H15.3691ZM24.6672 8.33369H26.7322C29.5802 8.33369 31.8954 10.604 31.8954 13.3967V15.803C31.8954 16.3368 31.4546 16.7716 30.9089 16.7716C30.3645 16.7716 29.9224 16.3368 29.9224 15.803V13.3967C29.9224 11.6717 28.4913 10.2684 26.7322 10.2684H24.6672C24.1228 10.2684 23.6808 9.83619 23.6808 9.30231C23.6808 8.76715 24.1228 8.33369 24.6672 8.33369ZM23.5811 13.185H16.4204C14.7819 13.2015 13.4648 14.5146 13.4791 16.1226V17.7369C13.483 17.9251 13.6372 18.0789 13.8291 18.0852H26.1698C26.363 18.0802 26.5172 17.9263 26.5237 17.7369V16.1226C26.525 15.3459 26.2191 14.5997 25.6669 14.0443C25.1185 13.4938 24.3654 13.185 23.5811 13.185ZM6.72832 20.0535H33.2726C33.817 20.0535 34.2591 20.487 34.2591 21.0221C34.2591 21.556 33.817 21.9882 33.2726 21.9882H31.8959V26.6025C31.8959 29.3965 29.5794 31.6667 26.7328 31.6667H24.6678C24.122 31.6667 23.68 31.2333 23.68 30.6981C23.68 30.1642 24.122 29.7308 24.6678 29.7308H26.7328C28.4918 29.7308 29.9229 28.3287 29.9229 26.6025V21.9882H26.5228V23.2733C26.5357 24.8813 25.22 26.1957 23.5802 26.211H16.4194C14.7809 26.1957 13.4652 24.8813 13.4781 23.2733V21.9882H10.0779V26.6076C10.0779 28.3274 11.5052 29.727 13.2591 29.7295L15.3694 29.7308C15.9139 29.7308 16.3559 30.1642 16.3559 30.6981C16.3546 31.2333 15.9139 31.6667 15.3681 31.6667L13.2565 31.6655C10.4163 31.6629 8.10369 29.3939 8.10369 26.6076V21.9882H6.72832C6.18387 21.9882 5.74054 21.556 5.74054 21.0221C5.74054 20.487 6.18387 20.0535 6.72832 20.0535Z" fill="#0F0056"/>
</g>
</g>
</svg>
