<svg width="24" height="24" viewBox="0 0 24 24" fill="none" xmlns="http://www.w3.org/2000/svg">
<g id="Line/settings">
<g id="Setting">
<path id="Path_33946" fill-rule="evenodd" clip-rule="evenodd" d="M20.5281 7.34554L19.9057 6.26545C19.3791 5.35153 18.2121 5.03624 17.297 5.56064V5.56064C16.8613 5.81727 16.3415 5.89008 15.8521 5.76301C15.3628 5.63594 14.944 5.31944 14.6883 4.8833C14.5237 4.60607 14.4353 4.29032 14.432 3.96796V3.96796C14.4468 3.45115 14.2518 2.95033 13.8915 2.57959C13.5311 2.20886 13.036 1.99979 12.5189 2H11.2649C10.7584 1.99999 10.2727 2.20184 9.91544 2.56087C9.55812 2.9199 9.35861 3.40652 9.36105 3.91304V3.91304C9.34603 4.95885 8.49392 5.79873 7.448 5.79863C7.12565 5.79528 6.80989 5.70687 6.53267 5.54233V5.54233C5.6175 5.01794 4.45055 5.33322 3.92397 6.24714L3.25578 7.34554C2.72985 8.25832 3.04084 9.42453 3.95143 9.95423V9.95423C4.54334 10.296 4.90797 10.9275 4.90797 11.611C4.90797 12.2945 4.54334 12.926 3.95143 13.2677V13.2677C3.04199 13.7939 2.73066 14.9573 3.25578 15.8673V15.8673L3.88736 16.9565C4.13408 17.4017 4.54804 17.7302 5.03763 17.8694C5.52722 18.0085 6.05208 17.9468 6.49606 17.6979V17.6979C6.93252 17.4433 7.45262 17.3735 7.94078 17.5041C8.42893 17.6348 8.84467 17.955 9.0956 18.3936C9.26013 18.6708 9.34854 18.9866 9.35189 19.3089V19.3089C9.35189 20.3655 10.2084 21.222 11.2649 21.222H12.5189C13.5719 21.222 14.4269 20.371 14.432 19.3181V19.3181C14.4295 18.81 14.6303 18.3219 14.9896 17.9626C15.3489 17.6034 15.8369 17.4026 16.345 17.405C16.6666 17.4136 16.9811 17.5017 17.2604 17.6613V17.6613C18.1731 18.1873 19.3394 17.8763 19.8691 16.9657V16.9657L20.5281 15.8673C20.7832 15.4294 20.8532 14.9079 20.7226 14.4183C20.5921 13.9287 20.2717 13.5113 19.8324 13.2586V13.2586C19.3932 13.0059 19.0728 12.5885 18.9422 12.0989C18.8117 11.6092 18.8817 11.0877 19.1368 10.6499C19.3027 10.3603 19.5428 10.1201 19.8324 9.95423V9.95423C20.7376 9.42482 21.0478 8.26542 20.5281 7.35469V7.35469V7.34554Z" stroke="white" stroke-width="1.5" stroke-linecap="round" stroke-linejoin="round"/>
<circle id="Ellipse_737" cx="11.8964" cy="11.611" r="2.63616" stroke="white" stroke-width="1.5" stroke-linecap="round" stroke-linejoin="round"/>
</g>
</g>
</svg>
