<svg width="31" height="32" viewBox="0 0 31 32" fill="none" xmlns="http://www.w3.org/2000/svg">
<circle cx="15.4999" cy="15.5" r="15" stroke="white"/>
<path d="M15.5179 23.48C15.0486 23.48 14.6539 23.3307 14.3339 23.032C14.0353 22.712 13.8859 22.3173 13.8859 21.848V17.56H9.59794C9.12861 17.56 8.73394 17.4 8.41394 17.08C8.11527 16.76 7.96594 16.3653 7.96594 15.896C7.96594 15.4267 8.11527 15.0427 8.41394 14.744C8.73394 14.424 9.12861 14.264 9.59794 14.264H13.8859V9.976C13.8859 9.528 14.0459 9.144 14.3659 8.824C14.7073 8.504 15.0913 8.344 15.5179 8.344C16.0086 8.344 16.4033 8.504 16.7019 8.824C17.0006 9.12267 17.1499 9.50667 17.1499 9.976V14.264H21.4379C21.8859 14.264 22.2699 14.424 22.5899 14.744C22.9313 15.064 23.1019 15.448 23.1019 15.896C23.1019 16.3653 22.9313 16.76 22.5899 17.08C22.2699 17.4 21.8859 17.56 21.4379 17.56H17.1499V21.848C17.1499 22.3173 17.0006 22.712 16.7019 23.032C16.4033 23.3307 16.0086 23.48 15.5179 23.48Z" fill="white"/>
</svg>
